<svg xmlns="http://www.w3.org/2000/svg" width="253" height="288" fill="none"><path fill="url(#a)" d="M181.91 159.553c20.937-5.673 54.671-9.471 62.274-6.943 7.204 2.395 10.1 17.078 7.166 27.662-2.447 8.842-8.215 12.434-20.15 12.652-13.06.241-41.874 3.931-66.182 7.632l16.879-41.003h.013Z"/><path fill="url(#b)" d="M140.609 113.167c10.662-16.087 43.298-54.332 43.298-54.332s2.035-3.81 3.995-9.29c1.211-3.374 2.609-6.434 4.232-7.33 2.797-1.536 7.566-1.028 7.866 1.61.586 5.067.449 9.663.449 9.663s12.485-1.645 17.841-.145c5.356 1.5 12.51 7.826 9.226 12.446-3.321 4.693-13.908 10.402-20.263 14.358-2.671 5.285-27.441 49.506-49.19 69.802l-17.454-36.794v.012Z"/><path fill="#698EFF" d="M184.38 187.251c-14.183 22.025-68.317 30.855-92.063 15.893-19.726-12.422-7.329-54.828-1.211-76.14l63.735-12.047c19.351 14.732 45.282 47.825 29.539 72.294Z"/><path fill="#698EFF" d="M104.589 203.507c-1.685 37.508 8.103 70.443 17.554 80.579 4.644 4.983 20.987 3.689 28.028-2.939 8.165-7.693 9.339-11.89 5.069-25.739-4.282-13.849-8.889-33.807-11.486-48.091l-39.165-3.822v.012ZM41.917 190.226c8.84-2.382 35.756 2.238 36.88 6.133 1.124 3.894-16.03 19.449-26.13 22.545-8.753 2.686-18.965-.931-21.25-8.853-2.285-7.923 1.673-17.442 10.5-19.825Z"/><path fill="#527FFA" d="M93.677 124.053c5.543 2.455 33.047 12.651 45.394 12.276 9.214-.278 13.983-3.06 15.082-10.147 1.036-6.689-1.386-15.059-1.386-15.059l-59.103 12.942.013-.012Z"/><path fill="#698EFF" d="M54.04 92.629c-1.411-8.576-3.097-11.563-3.122-18.627-.025-9.846 6.018-18.288 15.344-21.663 7.553-2.721 28.053-7.087 41.425-9.144 13.371-2.056 32.66-4.33 40.712-4.003 9.938.411 18.391 6.628 21.499 16.002 2.235 6.725 3.184 10.341 4.582 18.917 1.411 8.576 1.661 12.3 1.686 19.365.025 9.845-6.018 18.288-15.344 21.662-7.553 2.722-26.63 6.35-39.989 8.395-13.371 2.056-34.096 5.068-42.149 4.741-9.938-.411-18.39-6.628-21.499-16.002-2.234-6.725-3.183-10.342-4.582-18.917l1.436-.738v.012Z"/><path fill="#B7CCFF" d="M127.587 85.904c13.946-1.67 20.039-2.758 25.594-3.762 6.18-1.112 10.375-4.547 10.787-11.563.287-5.02-.861-12.228-3.159-19.086-2.159-6.41-7.178-7.802-15.243-7.245-10.063.701-23.871 2.504-32.923 4.741-6.317 1.56-8.415 8.515-7.191 13.232 1.223 4.718 2.285 9.677 5.031 15.458 2.747 5.782 8.165 9.29 17.104 8.213v.012Z"/><path fill="#698EFF" d="m148.548 61.387 4.607-.702c2.447-.375 4.881 1.065 5.418 3.206.537 2.14-.999 4.173-3.458 4.547l-4.607.702c-2.447.375-4.882-1.064-5.419-3.205-.536-2.141.999-4.173 3.459-4.548ZM126.948 64.665l4.607-.702c2.447-.375 4.881 1.065 5.418 3.205.55 2.141-.998 4.173-3.458 4.548l-4.607.702c-2.447.375-4.881-1.065-5.418-3.206-.537-2.14.999-4.172 3.458-4.547Z"/><path fill="#000" d="M79.908 72.575c.812 1.572 3.696.218 8.54-.52 4.844-.75 8.34.17 8.951-1.972.675-2.358-4.07-5.25-9.9-4.33-5.431.859-8.84 4.415-7.59 6.834v-.012Z"/><path fill="#698EFF" d="M42.89 79.723c3.534-.786 6.293-1.318 9.864-1.862.886-.133 1.71.435 1.848 1.258l6.005 37.205c.137.822-.475 1.609-1.361 1.742-3.57.544-6.367.846-9.976 1.149-6.23.52-11.823-3.351-13.221-9.023a112.2 112.2 0 0 1-2.896-17.974C32.69 86.4 36.798 81.066 42.89 79.71v.012Z"/><path fill="#B7CCFF" d="M46.748 83.485c2.31-.508 3.083-.714 6.317-1.21 1.173-.181 2.247.436 2.397 1.391l2.846 17.538c.15.944-.674 1.863-1.847 2.032-3.234.472-4.033.508-6.392.714-2.597.218-4.92-.98-5.469-2.854-1.024-3.435-2.047-9.689-2.147-13.269-.063-1.947 1.76-3.774 4.307-4.342h-.012Z"/><path fill="url(#c)" d="M102.205 128.794c-15.993-11.212-60.789-35.27-60.789-35.27s-2.497-2.528-4.994-7.801c-1.023-2.165-2.46-4.137-4.307-4.391-3.171-.435-5.868 1.197-6.242 3.955-.687 5.056-.912 9.555-.912 9.555s-14.02 3.556-18.452 6.846c-4.42 3.302-8.94 12.471-4.083 15.531 4.195 2.637 12.023 4.245 18.528 4.657 6.504.411 9.788.326 9.788.326 11.448 11.648 41.162 35.814 69.066 47.027l2.384-40.435h.013Z"/><path fill="#55F186" d="M89.03 36.664S77.458 43.667 70.38 39.65c-7.08-4.015-14.508-13.885-7.779-20.586 6.742-6.689 13.821-8.2 19.689-5.189 5.868 3.012 14.857 7.862 14.857 7.862l-8.115 14.914v.012Z"/><path fill="#008D3C" d="M87.66 36.627c-.313 0-.625-.048-.924-.157-10.4-3.616-26.006-19.558-29.377-33.008-.362-1.427.549-2.867 2.022-3.217 1.473-.351 2.96.532 3.321 1.96C65.574 13.621 79.72 28.365 88.596 31.45c1.435.496 2.172 2.02 1.66 3.41-.4 1.09-1.46 1.767-2.584 1.767h-.013Z"/><path fill="#26CB7A" d="M70.38 39.651s7.255 4.681 21.25-.169c10.6-3.677 21.074-9.035 24.183-15.058 3.109-6.024 3.633-13.39-.687-17.406-4.319-4.015-10.25-2.975-14.507-.834-4.67 2.346-9.151 7.535-12.96 15.228-3.794 7.692-7.777 19.582-17.278 18.24Z"/><path fill="#EB459F" d="M119.733 108.631c-3.296 1.198-7.379 1.536-11.199.145-6.393-2.322-10.05-8.902-10.787-14.054-.475-3.375.312-6.145 2.409-6.701 4.358-1.15 24.571 8.176 26.069 13.438.736 2.588-2.21 5.6-6.505 7.16l.013.012Z"/><path fill="#FFA8D2" d="M119.732 108.631c-3.296 1.198-7.379 1.536-11.199.145-6.392-2.322-10.05-8.902-10.787-14.055 3.196.726 6.63 2.02 10.013 3.847 5.281 2.842 9.463 6.483 11.96 10.051l.013.012Z"/><defs><linearGradient id="a" x1="153.269" x2="253.203" y1="173.619" y2="179.301" gradientUnits="userSpaceOnUse"><stop stop-color="#698EFF"/><stop offset=".17" stop-color="#5D86FC"/><stop offset=".42" stop-color="#5480FA"/><stop offset=".8" stop-color="#527FFA"/></linearGradient><linearGradient id="b" x1="159.636" x2="198.724" y1="119.323" y2="64.918" gradientUnits="userSpaceOnUse"><stop stop-color="#688DFE"/><stop offset=".32" stop-color="#5782FB"/><stop offset=".56" stop-color="#527FFA"/></linearGradient><linearGradient id="c" x1="104.639" x2="-53.253" y1="141.192" y2="71.71" gradientUnits="userSpaceOnUse"><stop offset=".06" stop-color="#698EFF"/><stop offset=".48" stop-color="#88A7FF"/><stop offset="1" stop-color="#B7CCFF"/></linearGradient></defs></svg>