<svg width="70" height="108.14" viewBox="0 0 172 186" fill="none" xmlns="http://www.w3.org/2000/svg">
<path d="M69.0454 152.187C69.3077 152.117 69.5606 151.979 69.7736 151.79L83.3473 139.428C84.0671 138.77 84.1208 137.658 83.4627 136.938C82.8046 136.218 81.6924 136.164 80.9726 136.822L67.3989 149.184C66.6791 149.842 66.6254 150.955 67.2834 151.674C67.7424 152.175 68.4307 152.351 69.0454 152.187Z" fill="#3D58D9"/>
<path d="M80.4426 137.138C80.4426 137.138 42.5153 173.898 35.5113 179.136C31.8741 181.857 28.4976 182.663 27.1228 180.414C25.9976 178.572 25.84 175.619 25.84 175.619C17.2564 176.168 12.0739 172.03 11.8548 166.845C11.5244 159.142 23.4787 154.811 25.4366 152.346C30.5502 145.919 43.6361 131.175 54.1361 119.636C60.6112 112.519 69.5945 105.619 81.0039 102.566L80.4508 137.135L80.4426 137.138Z" fill="#698EFF"/>
<path d="M140.115 84.3809L83.3449 100.185C95.1719 107.261 113.909 107.992 126.962 101.663C140.359 95.1717 140.115 84.3809 140.115 84.3809Z" fill="#3D58D9"/>
<path d="M72.0271 38.3832C69.6923 37.2073 67.9484 35.2849 67.2905 32.826C66.2269 28.8507 68.3391 24.6318 72.259 22.0811C73.3728 21.3528 74.6453 20.7576 76.0299 20.3521C76.161 20.317 76.2922 20.2819 76.4315 20.2446C82.8739 18.521 86.5597 21.1359 92.6958 24.4391C96.4107 26.4402 101.626 28.3384 105.73 29.691L72.0375 38.3892L72.0271 38.3832Z" fill="#55F186"/>
<path d="M90.858 35.588C91.4481 35.4301 91.9325 34.9755 92.1074 34.3491C92.3657 33.4104 91.8085 32.444 90.8699 32.1858C82.1642 29.816 74.8534 23.5335 70.8286 14.9576C70.4169 14.0753 69.3672 13.6974 68.4849 14.1091C67.6026 14.5209 67.2247 15.5706 67.6364 16.4529C72.1068 25.9722 80.2337 32.9411 89.9441 35.5866C90.2563 35.6699 90.5711 35.6648 90.858 35.588Z" fill="#008D3C"/>
<path d="M84.3651 35.4531L110.103 28.9007C117.922 24.6744 120.986 17.3815 118.497 10.0461C116.678 4.69203 110.369 1.53163 103.654 3.41618C95.877 5.60221 93.9996 11.5852 91.9998 16.8806C87.5502 28.646 84.3673 35.4613 84.3673 35.4613L84.3651 35.4531Z" fill="#26CB7A"/>
<path d="M96.3261 39.1111C96.6293 39.03 96.9107 38.8669 97.1433 38.6202C104.546 30.834 108.95 21.8211 109.221 13.9053C109.251 12.9313 108.496 12.1143 107.522 12.0851C106.548 12.0558 105.731 12.8102 105.702 13.7841C105.586 17.1263 104.273 26.0061 94.5884 36.1945C93.9167 36.9012 93.9433 38.0184 94.65 38.69C95.11 39.1291 95.7441 39.2668 96.3179 39.1133L96.3261 39.1111Z" fill="#008D3C"/>
<path d="M152.211 34.4256C149.148 35.0255 146.797 35.5581 143.788 36.3629C143.043 36.5625 142.602 37.3127 142.793 38.0258L151.499 70.302C151.689 71.0151 152.454 71.4429 153.198 71.2352C156.206 70.4304 158.503 69.6928 161.454 68.6749C166.535 66.9202 169.536 61.8223 168.58 56.738C167.583 51.4362 166.183 46.2337 164.374 41.149C162.639 36.2731 157.481 33.3757 152.209 34.4174L152.211 34.4256Z" fill="#698EFF"/>
<path d="M152.083 40.3375C149.822 40.7842 149.046 40.904 145.965 41.7286C144.85 42.0268 144.142 43.0243 144.392 43.9587L149.043 61.2115C149.293 62.1459 150.413 62.6543 151.525 62.3479C154.603 61.507 155.333 61.215 157.512 60.465C159.917 59.6372 161.483 57.611 161.218 55.6704C160.727 52.0953 159.074 45.9502 157.708 42.618C156.96 40.8068 154.588 39.8517 152.094 40.3435L152.083 40.3375Z" fill="#B7CCFF"/>
<path d="M48.6337 76.8682C46.6403 69.4177 46.0927 66.1564 45.4732 59.9017C44.6096 51.1915 49.3481 43.0993 57.4665 39.1706C64.0454 35.9876 80.93 30.8465 92.8065 27.669C104.683 24.4914 121.887 20.5121 129.168 19.9868C138.164 19.3367 146.31 23.9816 149.912 31.9593C152.498 37.6877 153.652 40.7868 155.646 48.2373C157.639 55.6878 158.187 58.9492 158.806 65.2039C159.67 73.914 154.931 82.0062 146.813 85.9349C140.234 89.118 123.349 94.259 111.473 97.4366C99.5962 100.614 82.392 104.593 75.1108 105.119C66.1152 105.769 57.969 101.124 54.3678 93.1462C51.7812 87.4178 50.627 84.3187 48.6337 76.8682Z" fill="#698EFF"/>
<path d="M109.248 74.3445L125.516 70.0183C133.553 67.8856 137.624 62.1239 137.37 56.0525C137.133 50.3101 136.001 46.6345 133.824 40.7964C132.071 36.0834 127.867 34.9773 123.578 36.116L95.9756 43.4483C91.6949 44.5848 89.1451 48.9734 90.2838 53.2623L93.2245 64.2537C95.5578 72.9746 101.211 76.4772 109.248 74.3445Z" fill="#B7CCFF"/>
<path d="M124.18 55.5765L127.688 54.6379C129.561 54.1543 131.431 55.1032 131.876 56.7671C132.321 58.4309 131.158 60.1912 129.296 60.6808L125.787 61.6194C123.914 62.103 122.044 61.1541 121.599 59.4902C121.154 57.8264 122.317 56.0661 124.18 55.5765Z" fill="#698EFF"/>
<path d="M107.701 59.9398L111.209 59.0012C113.082 58.5176 114.952 59.4665 115.397 61.1304C115.842 62.7942 114.68 64.5545 112.817 65.0441L109.309 65.9827C107.436 66.4663 105.566 65.5174 105.121 63.8535C104.676 62.1896 105.838 60.4294 107.701 59.9398Z" fill="#698EFF"/>
<path d="M83.1891 63.0391C80.618 63.727 77.9759 62.2003 77.288 59.6291C76.6001 57.058 78.1268 54.4159 80.698 53.728C83.2692 53.0401 85.9112 54.5668 86.5991 57.138C87.287 59.7092 85.7603 62.3512 83.1891 63.0391Z" fill="black"/>
<path d="M145.097 46.4766C142.526 47.1645 139.884 45.6378 139.196 43.0666C138.508 40.4955 140.035 37.8534 142.606 37.1655C145.177 36.4776 147.819 38.0043 148.507 40.5755C149.195 43.1467 147.669 45.7887 145.097 46.4766Z" fill="black"/>
<path d="M93.9652 91.4575C97.2921 91.516 100.272 90.016 102.217 88.1255C104.144 86.2662 105.086 84.0115 104.412 82.444C103.29 79.7931 88.3472 78.732 85.5897 80.5062C84.5431 81.1902 84.2091 82.5355 84.5083 84.0804C85.1318 87.3302 88.5511 91.3778 93.9592 91.4679L93.9652 91.4575Z" fill="#E9459D"/>
<path d="M42.2639 63.8422C45.2171 62.8325 47.5208 62.1195 50.5288 61.3147C51.2747 61.1152 52.0309 61.5452 52.2217 62.2583L60.7963 94.5696C60.9871 95.2827 60.5384 96.0351 59.7904 96.2264C56.7823 97.0312 54.4238 97.5393 51.3587 98.131C46.0799 99.1481 40.934 96.2299 39.2237 91.3474C37.4399 86.2562 36.0556 81.0493 35.0833 75.7409C34.1516 70.6501 37.1737 65.5642 42.2617 63.834L42.2639 63.8422Z" fill="#698EFF"/>
<path d="M45.3411 68.8976C47.5228 68.1558 48.255 67.8721 51.3368 67.0475C52.4515 66.7493 53.5631 67.2599 53.8131 68.1943L58.3986 85.4647C58.6486 86.3991 57.9324 87.3987 56.8155 87.6888C53.7292 88.4969 52.951 88.6085 50.6881 89.0471C48.1914 89.5306 45.8229 88.557 45.0831 86.7436C43.7232 83.401 42.0867 77.2515 41.6061 73.6824C41.3498 71.7396 42.9282 69.7276 45.3351 68.908L45.3411 68.8976Z" fill="#B7CCFF"/>
<path d="M93.9649 91.4584C97.2917 91.5169 100.272 90.0169 102.217 88.1265C99.7142 86.3894 96.2151 84.998 92.2237 84.3269C89.4726 83.8597 86.8475 83.7979 84.5139 84.0709C85.1375 87.3207 88.5567 91.3683 93.9649 91.4584Z" fill="#FFADD6"/>
</svg>