<svg xmlns="http://www.w3.org/2000/svg" width="1920" height="1085" fill="none"><mask id="b" width="1924" height="1410" x="-1" y="-325" maskUnits="userSpaceOnUse" style="mask-type:luminance"><path fill="url(#a)" stroke="#252a43" d="M0-324h1922v1407.63H0V-324Z"/></mask><g stroke="#252a43" mask="url(#b)"><path fill="#252a43" fill-opacity=".624" d="M0-22.364h96.1V78.18H0V-22.364Z"/><path d="M192.2-22.364H96.1V78.18h96.1m0-100.545V78.18m0-100.545h96.1M192.2 78.18h96.1m0-100.545V78.18m0-100.545h96.1V78.18h-96.1"/><path fill="#252a43" fill-opacity=".486" d="M384.4-22.364h96.1V78.18h-96.1V-22.364Z"/><path d="M576.6-22.364h-96.1V78.18h96.1m0-100.545V78.18m0-100.545h96.1V78.18h-96.1"/><path fill="#252a43" fill-opacity=".455" d="M672.7-22.364h96.1V78.18h-96.1V-22.364Z"/><path d="M864.9-22.364h-96.1V78.18h96.1m0-100.545V78.18m0-100.545H961M864.9 78.18H961m0-100.545V78.18m0-100.545h96.1V78.18H961"/><path fill="#252a43" fill-opacity=".549" d="M1057.1-22.364h96.1V78.18h-96.1V-22.364Z"/><path fill="#252a43" fill-opacity=".51" d="M1153.2-22.364h96.1V78.18h-96.1V-22.364Z"/><path d="M1249.3-22.364h96.1V78.18h-96.1V-22.364Z"/><path fill="#252a43" fill-opacity=".561" d="M1345.4-22.364h96.1V78.18h-96.1V-22.364Z"/><path d="M1537.6-22.364h-96.1V78.18h96.1m0-100.545V78.18m0-100.545h96.1M1537.6 78.18h96.1m0-100.545V78.18m0-100.545h96.1V78.18h-96.1"/><path fill="#252a43" fill-opacity=".208" d="M1729.8-22.364h96.1V78.18h-96.1V-22.364Z"/><path d="M1825.9-22.364h96.1V78.18h-96.1V-22.364Z"/><path fill="#252a43" fill-opacity=".396" d="M0 78.181h96.1v100.545H0V78.181Z"/><path fill="#252a43" fill-opacity=".663" d="M96.1 78.181h96.1v100.545H96.1V78.181Z"/><path fill="#252a43" fill-opacity=".208" d="M192.2 78.181h96.1v100.545h-96.1V78.181Z"/><path d="M288.3 78.181h96.1v100.545h-96.1V78.181Z"/><path fill="#252a43" fill-opacity=".035" d="M384.4 78.181h96.1v100.545h-96.1V78.181Z"/><path d="M576.6 78.181h-96.1v100.545h96.1m0-100.545v100.545m0-100.545h96.1m-96.1 100.545h96.1m0-100.545v100.545m0-100.545h96.1m-96.1 100.545h96.1m0-100.545v100.545m0-100.545h96.1m-96.1 100.545h96.1m0-100.545v100.545m0-100.545H961m-96.1 100.545H961m0-100.545v100.545m0-100.545h96.1M961 178.726h96.1m0-100.545v100.545m0-100.545h96.1v100.545h-96.1"/><path fill="#252a43" fill-opacity=".4" d="M1153.2 78.181h96.1v100.545h-96.1V78.181Z"/><path d="M1345.4 78.181h-96.1v100.545h96.1m0-100.545v100.545m0-100.545h96.1m-96.1 100.545h96.1m0-100.545v100.545m0-100.545h96.1m-96.1 100.545h96.1m0-100.545v100.545m0-100.545h96.1v100.545h-96.1"/><path fill="#252a43" fill-opacity=".153" d="M1633.7 78.181h96.1v100.545h-96.1V78.181Z"/><path d="M1825.9 78.181h-96.1v100.545h96.1m0-100.545v100.545m0-100.545h96.1v100.545h-96.1"/><path fill="#252a43" fill-opacity=".161" d="M0 178.727h96.1v100.545H0V178.727Z"/><path d="M96.1 178.727h96.1v100.545H96.1V178.727Z"/><path fill="#252a43" fill-opacity=".286" d="M192.2 178.727h96.1v100.545h-96.1V178.727Z"/><path d="M384.4 178.727h-96.1v100.545h96.1m0-100.545v100.545m0-100.545h96.1v100.545h-96.1"/><path fill="#252a43" fill-opacity=".925" d="M480.5 178.727h96.1v100.545h-96.1V178.727Z"/><path fill="#252a43" fill-opacity=".231" d="M576.6 178.727h96.1v100.545h-96.1V178.727Z"/><path d="M768.8 178.727h-96.1v100.545h96.1m0-100.545v100.545m0-100.545h96.1m-96.1 100.545h96.1m0-100.545v100.545m0-100.545H961m-96.1 100.545H961m0-100.545v100.545m0-100.545h96.1M961 279.272h96.1m0-100.545v100.545m0-100.545h96.1v100.545h-96.1"/><path fill="#252a43" fill-opacity=".757" d="M1153.2 178.727h96.1v100.545h-96.1V178.727Z"/><path fill="#252a43" fill-opacity=".906" d="M1249.3 178.727h96.1v100.545h-96.1V178.727Z"/><path d="M1441.5 178.727h-96.1v100.545h96.1m0-100.545v100.545m0-100.545h96.1m-96.1 100.545h96.1m0-100.545v100.545m0-100.545h96.1v100.545h-96.1"/><path fill="#252a43" fill-opacity=".608" d="M1633.7 178.727h96.1v100.545h-96.1V178.727Z"/><path d="M1825.9 178.727h-96.1v100.545h96.1m0-100.545v100.545m0-100.545h96.1v100.545h-96.1"/><path fill="#252a43" fill-opacity=".169" d="M0 279.272h96.1v100.545H0V279.272Z"/><path fill="#252a43" fill-opacity=".467" d="M96.1 279.272h96.1v100.545H96.1V279.272Z"/><path d="M288.3 279.272h-96.1v100.545h96.1m0-100.545v100.545m0-100.545h96.1m-96.1 100.545h96.1m0-100.545v100.545m0-100.545h96.1m-96.1 100.545h96.1m0-100.545v100.545m0-100.545h96.1m-96.1 100.545h96.1m0-100.545v100.545m0-100.545h96.1m-96.1 100.545h96.1m0-100.545v100.545m0-100.545h96.1m-96.1 100.545h96.1m0-100.545v100.545m0-100.545h96.1m-96.1 100.545h96.1m0-100.545v100.545m0-100.545H961m-96.1 100.545H961m0-100.545v100.545m0-100.545h96.1M961 379.817h96.1m0-100.545v100.545m0-100.545h96.1m-96.1 100.545h96.1m0-100.545v100.545m0-100.545h96.1m-96.1 100.545h96.1m0-100.545v100.545m0-100.545h96.1v100.545h-96.1"/><path fill="#252a43" fill-opacity=".137" d="M1345.4 279.272h96.1v100.545h-96.1V279.272Z"/><path fill="#252a43" fill-opacity=".4" d="M1441.5 279.272h96.1v100.545h-96.1V279.272Z"/><path d="M1633.7 279.272h-96.1v100.545h96.1m0-100.545v100.545m0-100.545h96.1m-96.1 100.545h96.1m0-100.545v100.545m0-100.545h96.1m-96.1 100.545h96.1m0-100.545v100.545m0-100.545h96.1v100.545h-96.1m-1729.8 0H0v100.546h96.1m0-100.546v100.546m0-100.546h96.1M96.1 480.363h96.1m0-100.546v100.546m0-100.546h96.1m-96.1 100.546h96.1m0-100.546v100.546m0-100.546h96.1v100.546h-96.1"/><path fill="#252a43" fill-opacity=".557" d="M384.4 379.817h96.1v100.546h-96.1V379.817Z"/><path d="M480.5 379.817h96.1v100.546h-96.1V379.817Z"/><path fill="#252a43" fill-opacity=".078" d="M576.6 379.817h96.1v100.546h-96.1V379.817Z"/><path d="M768.8 379.817h-96.1v100.546h96.1m0-100.546v100.546m0-100.546h96.1v100.546h-96.1"/><path fill="#252a43" fill-opacity=".667" d="M864.9 379.817H961v100.546h-96.1V379.817Z"/><path d="M1057.1 379.817H961v100.546h96.1m0-100.546v100.546m0-100.546h96.1m-96.1 100.546h96.1m0-100.546v100.546m0-100.546h96.1m-96.1 100.546h96.1m0-100.546v100.546m0-100.546h96.1m-96.1 100.546h96.1m0-100.546v100.546m0-100.546h96.1m-96.1 100.546h96.1m0-100.546v100.546m0-100.546h96.1m-96.1 100.546h96.1m0-100.546v100.546m0-100.546h96.1m-96.1 100.546h96.1m0-100.546v100.546m0-100.546h96.1m-96.1 100.546h96.1m0-100.546v100.546m0-100.546h96.1m-96.1 100.546h96.1m0-100.546v100.546m0-100.546h96.1v100.546h-96.1m-1729.8 0H0v100.545h96.1m0-100.545v100.545m0-100.545h96.1M96.1 580.908h96.1m0-100.545v100.545m0-100.545h96.1m-96.1 100.545h96.1m0-100.545v100.545m0-100.545h96.1m-96.1 100.545h96.1m0-100.545v100.545m0-100.545h96.1v100.545h-96.1"/><path fill="#252a43" fill-opacity=".839" d="M480.5 480.363h96.1v100.545h-96.1V480.363Z"/><path fill="#252a43" fill-opacity=".894" d="M576.6 480.363h96.1v100.545h-96.1V480.363Z"/><path d="M768.8 480.363h-96.1v100.545h96.1m0-100.545v100.545m0-100.545h96.1v100.545h-96.1"/><path fill="#252a43" fill-opacity=".184" d="M864.9 480.363H961v100.545h-96.1V480.363Z"/><path d="M961 480.363h96.1v100.545H961V480.363Z"/><path fill="#252a43" fill-opacity=".58" d="M1057.1 480.363h96.1v100.545h-96.1V480.363Z"/><path fill="#252a43" fill-opacity=".871" d="M1153.2 480.363h96.1v100.545h-96.1V480.363Z"/><path fill="#252a43" fill-opacity=".141" d="M1249.3 480.363h96.1v100.545h-96.1V480.363Z"/><path d="M1441.5 480.363h-96.1v100.545h96.1m0-100.545v100.545m0-100.545h96.1v100.545h-96.1"/><path fill="#252a43" fill-opacity=".239" d="M1537.6 480.363h96.1v100.545h-96.1V480.363Z"/><path d="M1729.8 480.363h-96.1v100.545h96.1m0-100.545v100.545m0-100.545h96.1v100.545h-96.1"/><path fill="#252a43" fill-opacity=".078" d="M1825.9 480.363h96.1v100.545h-96.1V480.363Z"/><path d="M96.1 580.908H0v100.546h96.1m0-100.546v100.546m0-100.546h96.1v100.546H96.1"/><path fill="#252a43" fill-opacity=".769" d="M192.2 580.908h96.1v100.546h-96.1V580.908Z"/><path d="M384.4 580.908h-96.1v100.546h96.1m0-100.546v100.546m0-100.546h96.1m-96.1 100.546h96.1m0-100.546v100.546m0-100.546h96.1m-96.1 100.546h96.1m0-100.546v100.546m0-100.546h96.1m-96.1 100.546h96.1m0-100.546v100.546m0-100.546h96.1v100.546h-96.1"/><path fill="#252a43" fill-opacity=".133" d="M768.8 580.908h96.1v100.546h-96.1V580.908Z"/><path d="M864.9 580.908H961v100.546h-96.1V580.908Z"/><path fill="#252a43" fill-opacity=".42" d="M961 580.908h96.1v100.546H961V580.908Z"/><path d="M1153.2 580.908h-96.1v100.546h96.1m0-100.546v100.546m0-100.546h96.1m-96.1 100.546h96.1m0-100.546v100.546m0-100.546h96.1m-96.1 100.546h96.1m0-100.546v100.546m0-100.546h96.1m-96.1 100.546h96.1m0-100.546v100.546m0-100.546h96.1m-96.1 100.546h96.1m0-100.546v100.546m0-100.546h96.1m-96.1 100.546h96.1m0-100.546v100.546m0-100.546h96.1v100.546h-96.1"/><path fill="#252a43" fill-opacity=".976" d="M1729.8 580.908h96.1v100.546h-96.1V580.908Z"/><path d="M1825.9 580.908h96.1v100.546h-96.1V580.908Z"/><path fill="#252a43" fill-opacity=".757" d="M0 681.453h96.1v100.545H0V681.453Z"/><path d="M192.2 681.453H96.1v100.545h96.1m0-100.545v100.545m0-100.545h96.1m-96.1 100.545h96.1m0-100.545v100.545m0-100.545h96.1m-96.1 100.545h96.1m0-100.545v100.545m0-100.545h96.1m-96.1 100.545h96.1m0-100.545v100.545m0-100.545h96.1v100.545h-96.1"/><path fill="#252a43" fill-opacity=".902" d="M576.6 681.453h96.1v100.545h-96.1V681.453Z"/><path d="M768.8 681.453h-96.1v100.545h96.1m0-100.545v100.545m0-100.545h96.1v100.545h-96.1"/><path fill="#252a43" fill-opacity=".765" d="M864.9 681.453H961v100.545h-96.1V681.453Z"/><path d="M1057.1 681.453H961v100.545h96.1m0-100.545v100.545m0-100.545h96.1v100.545h-96.1"/><path fill="#252a43" fill-opacity=".463" d="M1153.2 681.453h96.1v100.545h-96.1V681.453Z"/><path d="M1249.3 681.453h96.1v100.545h-96.1V681.453Z"/><path fill="#252a43" fill-opacity=".369" d="M1345.4 681.453h96.1v100.545h-96.1V681.453Z"/><path d="M1537.6 681.453h-96.1v100.545h96.1m0-100.545v100.545m0-100.545h96.1m-96.1 100.545h96.1m0-100.545v100.545m0-100.545h96.1m-96.1 100.545h96.1m0-100.545v100.545m0-100.545h96.1m-96.1 100.545h96.1m0-100.545v100.545m0-100.545h96.1v100.545h-96.1m-1825.9 0h96.1v100.546H0V781.998Z"/><path fill="#252a43" fill-opacity=".608" d="M96.1 781.999h96.1v100.545H96.1V781.999Z"/><path fill="#252a43" fill-opacity=".867" d="M192.2 781.999h96.1v100.545h-96.1V781.999Z"/><path d="M384.4 781.999h-96.1v100.545h96.1m0-100.545v100.545m0-100.545h96.1m-96.1 100.545h96.1m0-100.545v100.545m0-100.545h96.1m-96.1 100.545h96.1m0-100.545v100.545m0-100.545h96.1m-96.1 100.545h96.1m0-100.545v100.545m0-100.545h96.1m-96.1 100.545h96.1m0-100.545v100.545m0-100.545h96.1m-96.1 100.545h96.1m0-100.545v100.545m0-100.545H961m-96.1 100.545H961m0-100.545v100.545m0-100.545h96.1M961 882.544h96.1m0-100.545v100.545m0-100.545h96.1v100.545h-96.1"/><path fill="#252a43" fill-opacity=".898" d="M1153.2 781.999h96.1v100.545h-96.1V781.999Z"/><path d="M1345.4 781.999h-96.1v100.545h96.1m0-100.545v100.545m0-100.545h96.1m-96.1 100.545h96.1m0-100.545v100.545m0-100.545h96.1v100.545h-96.1"/><path fill="#252a43" fill-opacity=".831" d="M1537.6 781.999h96.1v100.545h-96.1V781.999Z"/><path d="M1729.8 781.999h-96.1v100.545h96.1m0-100.545v100.545m0-100.545h96.1m-96.1 100.545h96.1m0-100.545v100.545m0-100.545h96.1v100.545h-96.1m-1729.8 0H0v100.545h96.1m0-100.545v100.545m0-100.545h96.1M96.1 983.089h96.1m0-100.545v100.545m0-100.545h96.1v100.545h-96.1"/><path fill="#252a43" fill-opacity=".541" d="M288.3 882.544h96.1v100.545h-96.1V882.544Z"/><path d="M480.5 882.544h-96.1v100.545h96.1m0-100.545v100.545m0-100.545h96.1m-96.1 100.545h96.1m0-100.545v100.545m0-100.545h96.1m-96.1 100.545h96.1m0-100.545v100.545m0-100.545h96.1m-96.1 100.545h96.1m0-100.545v100.545m0-100.545h96.1v100.545h-96.1"/><path fill="#252a43" fill-opacity=".396" d="M864.9 882.544H961v100.545h-96.1V882.544Z"/><path d="M1057.1 882.544H961v100.545h96.1m0-100.545v100.545m0-100.545h96.1m-96.1 100.545h96.1m0-100.545v100.545m0-100.545h96.1m-96.1 100.545h96.1m0-100.545v100.545m0-100.545h96.1m-96.1 100.545h96.1m0-100.545v100.545m0-100.545h96.1v100.545h-96.1"/><path fill="#252a43" fill-opacity=".235" d="M1441.5 882.544h96.1v100.545h-96.1V882.544Z"/><path d="M1633.7 882.544h-96.1v100.545h96.1m0-100.545v100.545m0-100.545h96.1m-96.1 100.545h96.1m0-100.545v100.545m0-100.545h96.1m-96.1 100.545h96.1m0-100.545v100.545m0-100.545h96.1v100.545h-96.1"/><path fill="#252a43" fill-opacity=".184" d="M0 983.089h96.1v100.541H0V983.089Z"/><path d="M192.2 983.089H96.1v100.541h96.1m0-100.541v100.541m0-100.541h96.1v100.541h-96.1"/><path fill="#252a43" fill-opacity=".8" d="M288.3 983.089h96.1v100.541h-96.1V983.089Z"/><path fill="#252a43" fill-opacity=".569" d="M384.4 983.089h96.1v100.541h-96.1V983.089Z"/><path d="M480.5 983.089h96.1v100.541h-96.1V983.089Z"/><path fill="#252a43" fill-opacity=".102" d="M576.6 983.089h96.1v100.541h-96.1V983.089Z"/><path fill="#252a43" fill-opacity=".533" d="M672.7 983.089h96.1v100.541h-96.1V983.089Z"/><path d="M864.9 983.089h-96.1v100.541h96.1m0-100.541v100.541m0-100.541H961m-96.1 100.541H961m0-100.541v100.541m0-100.541h96.1v100.541H961"/><path fill="#252a43" fill-opacity=".224" d="M1057.1 983.089h96.1v100.541h-96.1V983.089Z"/><path fill="#252a43" fill-opacity=".867" d="M1153.2 983.089h96.1v100.541h-96.1V983.089Z"/><path fill="#252a43" fill-opacity=".314" d="M1249.3 983.089h96.1v100.541h-96.1V983.089Z"/><path fill="#252a43" fill-opacity=".671" d="M1345.4 983.089h96.1v100.541h-96.1V983.089Z"/><path fill="#252a43" fill-opacity=".945" d="M1441.5 983.089h96.1v100.541h-96.1V983.089Z"/><path d="M1537.6 983.089h96.1v100.541h-96.1V983.089Z"/><path fill="#252a43" fill-opacity=".71" d="M1633.7 983.089h96.1v100.541h-96.1V983.089Z"/><path d="M1825.9 983.089h-96.1v100.541h96.1m0-100.541v100.541m0-100.541h96.1v100.541h-96.1"/></g><defs><radialGradient id="a" cx="0" cy="0" r="1" gradientTransform="matrix(961 0 0 703.817 961 379.817)" gradientUnits="userSpaceOnUse"><stop stop-color="#fff"/><stop offset="1" stop-color="#fff" stop-opacity="0"/></radialGradient></defs></svg>