<svg xmlns="http://www.w3.org/2000/svg" width="600" height="62" fill="none"><g opacity=".5"><path fill="url(#a)" d="M1170 10.59S1081.72 0 1024.6 0c-57.11 0-81.935 10.59-139.05 10.59C828.436 10.59 790.438 0 733.324 0c-57.115 0-92.674 10.59-149.788 10.59C526.422 10.59 495.864 0 438.75 0c-57.114 0-95.723 10.59-152.837 10.59C228.799 10.59 203.364 0 146.25 0 89.136 0 0 10.59 0 10.59v50.837h1170V10.591Z"/><path fill="url(#b)" d="M1170 10.59S1081.72 0 1024.6 0c-57.11 0-81.935 10.59-139.05 10.59C828.436 10.59 790.438 0 733.324 0c-57.115 0-92.674 10.59-149.788 10.59C526.422 10.59 495.864 0 438.75 0c-57.114 0-95.723 10.59-152.837 10.59C228.799 10.59 203.364 0 146.25 0 89.136 0 0 10.59 0 10.59v50.837h1170V10.591Z"/></g><g opacity="1"><path fill="url(#c)" d="M1170 16.763s-90.6 15.951-147.71 15.951c-57.117 0-77.926-15.95-135.04-15.95-57.114 0-108.636 15.95-165.75 15.95-57.114 0-87.673-15.95-144.788-15.95-57.114 0-89.135 15.95-146.25 15.95-57.114 0-96.935-15.95-154.05-15.95-57.114 0-90.598 15.95-147.712 15.95C71.586 32.714 0 16.764 0 16.764v44.663h1170V16.763Z"/><path fill="url(#d)" d="M1170 16.763s-90.6 15.951-147.71 15.951c-57.117 0-77.926-15.95-135.04-15.95-57.114 0-108.636 15.95-165.75 15.95-57.114 0-87.673-15.95-144.788-15.95-57.114 0-89.135 15.95-146.25 15.95-57.114 0-96.935-15.95-154.05-15.95-57.114 0-90.598 15.95-147.712 15.95C71.586 32.714 0 16.764 0 16.764v44.663h1170V16.763Z"/></g><defs><linearGradient id="a" x1="585" x2="585.472" y1="26.477" y2="89.262" gradientUnits="userSpaceOnUse"><stop stop-color="#252a43" stop-opacity="1"/><stop offset="1" stop-color="#252a43" stop-opacity="0"/></linearGradient><linearGradient id="b" x1="585" x2="585.472" y1="26.477" y2="86.862" gradientUnits="userSpaceOnUse"><stop stop-color="#252a43" stop-opacity=".42"/><stop offset="1" stop-color="#141627" stop-opacity="0"/><stop offset="1" stop-color="#141627" stop-opacity="0"/></linearGradient><linearGradient id="c" x1="585" x2="585.06" y1="-19.128" y2="61.428" gradientUnits="userSpaceOnUse"><stop stop-color="#252a43"/><stop offset="1" stop-color="#252a43" stop-opacity="0"/></linearGradient><linearGradient id="d" x1="585" x2="584.997" y1="-24.475" y2="61.428" gradientUnits="userSpaceOnUse"><stop stop-color="#252a43"/><stop offset="1" stop-color="#252a43" stop-opacity="0"/></linearGradient></defs></svg>