<svg xmlns="http://www.w3.org/2000/svg" width="560" height="350" viewBox="0 0 560 350"><rect width="100%" height="100%" fill="#252a43"/><path fill="#fff" d="m128.025 156.54-1.89 11.13q1.78-.37 3.4-.53 1.63-.17 3.15-.17 4.22 0 7.44 1.26 3.22 1.26 5.4 3.48 2.18 2.22 3.29 5.19 1.11 2.98 1.11 6.42 0 4.26-1.5 7.77-1.5 3.52-4.16 6.02-2.66 2.49-6.31 3.86-3.64 1.37-7.93 1.37-2.52 0-4.78-.52-2.25-.51-4.23-1.38-1.98-.87-3.67-2-1.68-1.13-3.01-2.39l2.81-3.88q.89-1.26 2.33-1.26.93 0 1.89.59.96.59 2.2 1.3 1.24.7 2.92 1.29 1.68.59 4.05.59 2.52 0 4.44-.81 1.93-.82 3.2-2.28 1.28-1.46 1.93-3.47.65-2.02.65-4.39 0-4.36-2.54-6.83-2.53-2.46-7.49-2.46-3.81 0-7.81 1.41l-5.7-1.63 4.44-25.97h26.42v3.88q0 1.96-1.22 3.19-1.22 1.22-4.14 1.22h-14.69Zm61.19-8.29-15.87 19.42-1.85 2.3q1.56-.78 3.35-1.21 1.79-.42 3.87-.42 3.03 0 5.9 1 2.87 1 5.05 3.01 2.18 2.02 3.51 5.02 1.34 2.99 1.34 6.99 0 3.74-1.37 7.01-1.37 3.28-3.85 5.72t-5.98 3.85q-3.49 1.4-7.71 1.4-4.29 0-7.7-1.37-3.4-1.37-5.81-3.83-2.4-2.46-3.68-5.92-1.27-3.46-1.27-7.67 0-3.78 1.53-7.76 1.54-3.97 4.76-8.27l12.76-17.13q.67-.88 1.94-1.51 1.28-.63 2.94-.63h8.14Zm-13.8 46.62q2.19 0 4.02-.74 1.83-.74 3.14-2.07 1.32-1.34 2.06-3.13.74-1.79.74-3.9 0-2.3-.71-4.13-.7-1.83-1.99-3.11-1.3-1.27-3.11-1.94-1.82-.67-4-.67-2.18 0-3.96.74-1.77.74-3.03 2.06-1.26 1.31-1.96 3.11-.71 1.79-.71 3.86 0 2.22.62 4.05.61 1.84 1.81 3.13 1.2 1.3 2.98 2.02 1.77.72 4.1.72Zm62.61-19.87q0 6.99-1.5 12.15-1.5 5.17-4.14 8.53-2.65 3.37-6.26 5.02-3.61 1.64-7.79 1.64t-7.75-1.64q-3.57-1.65-6.2-5.02-2.62-3.36-4.1-8.53-1.48-5.16-1.48-12.15 0-7.03 1.48-12.17 1.48-5.15 4.1-8.51 2.63-3.37 6.2-5.02 3.57-1.64 7.75-1.64t7.79 1.64q3.61 1.65 6.26 5.02 2.64 3.36 4.14 8.51 1.5 5.14 1.5 12.17Zm-9.44 0q0-5.81-.85-9.62-.85-3.81-2.27-6.07-1.43-2.26-3.28-3.16-1.85-.91-3.85-.91-1.96 0-3.79.91-1.83.9-3.24 3.16-1.4 2.26-2.23 6.07-.84 3.81-.84 9.62 0 5.81.84 9.62.83 3.81 2.23 6.07 1.41 2.25 3.24 3.16 1.83.91 3.79.91 2 0 3.85-.91t3.28-3.16q1.42-2.26 2.27-6.07.85-3.81.85-9.62Zm68.19 14.5-4.84 4.78-12.55-12.55-12.65 12.62-4.85-4.77 12.66-12.69-12.07-12.07 4.81-4.81 12.07 12.07 11.98-11.99 4.89 4.81-12.03 12.02 12.58 12.58Zm30.79-25.49-4.81-.85q.55-3.85 2.14-6.75 1.59-2.91 3.98-4.85 2.39-1.94 5.48-2.92 3.09-.98 6.64-.98 3.7 0 6.68 1.05 2.98 1.06 5.08 2.92 2.11 1.87 3.24 4.39 1.13 2.51 1.13 5.44 0 2.55-.57 4.49-.58 1.95-1.65 3.39-1.07 1.44-2.66 2.44t-3.59 1.67q4.81 1.51 7.18 4.62 2.36 3.11 2.36 7.81 0 3.99-1.48 7.06-1.48 3.08-3.99 5.17-2.52 2.09-5.83 3.16-3.31 1.07-7.01 1.07-4.03 0-7.03-.92-3-.93-5.22-2.74-2.22-1.81-3.77-4.44-1.56-2.63-2.67-6.07l4.04-1.66q1.59-.67 2.98-.36 1.38.32 2.01 1.5.67 1.3 1.46 2.56.8 1.25 1.91 2.23 1.11.99 2.61 1.6 1.5.61 3.57.61 2.33 0 4.07-.76 1.74-.76 2.9-1.98 1.17-1.22 1.74-2.72.57-1.5.57-3.02 0-1.92-.4-3.49-.41-1.58-1.7-2.69-1.3-1.11-3.72-1.73-2.43-.63-6.5-.63v-6.52q3.37-.03 5.59-.62 2.22-.6 3.53-1.65 1.32-1.06 1.84-2.54.51-1.48.51-3.25 0-3.78-2.11-5.74-2.1-1.96-5.62-1.96-1.63 0-3 .46-1.37.47-2.46 1.3-1.09.83-1.83 1.94-.74 1.11-1.11 2.44-.63 1.71-1.64 2.26-1.02.56-2.87.26Zm51.02-7.47-1.89 11.13q1.78-.37 3.41-.53 1.63-.17 3.14-.17 4.22 0 7.44 1.26 3.22 1.26 5.4 3.48 2.18 2.22 3.29 5.19 1.11 2.98 1.11 6.42 0 4.26-1.49 7.77-1.5 3.52-4.17 6.02-2.66 2.49-6.3 3.86-3.65 1.37-7.94 1.37-2.52 0-4.77-.52-2.26-.51-4.24-1.38-1.98-.87-3.66-2-1.69-1.13-3.02-2.39l2.81-3.88q.89-1.26 2.33-1.26.93 0 1.89.59.96.59 2.2 1.3 1.24.7 2.93 1.29 1.68.59 4.05.59 2.51 0 4.44-.81 1.92-.82 3.2-2.28 1.27-1.46 1.92-3.47.65-2.02.65-4.39 0-4.36-2.54-6.83-2.53-2.46-7.49-2.46-3.81 0-7.81 1.41l-5.69-1.63 4.44-25.97h26.41v3.88q0 1.96-1.22 3.19-1.22 1.22-4.14 1.22h-14.69Zm67.08 18.46q0 6.99-1.5 12.15-1.5 5.17-4.14 8.53-2.65 3.37-6.25 5.02-3.61 1.64-7.79 1.64t-7.75-1.64q-3.57-1.65-6.2-5.02-2.63-3.36-4.11-8.53-1.48-5.16-1.48-12.15 0-7.03 1.48-12.17 1.48-5.15 4.11-8.51 2.63-3.37 6.2-5.02 3.57-1.64 7.75-1.64t7.79 1.64q3.6 1.65 6.25 5.02 2.64 3.36 4.14 8.51 1.5 5.14 1.5 12.17Zm-9.43 0q0-5.81-.85-9.62-.86-3.81-2.28-6.07-1.42-2.26-3.27-3.16-1.85-.91-3.85-.91-1.96 0-3.79.91-1.84.9-3.24 3.16-1.41 2.26-2.24 6.07-.83 3.81-.83 9.62 0 5.81.83 9.62.83 3.81 2.24 6.07 1.4 2.25 3.24 3.16 1.83.91 3.79.91 2 0 3.85-.91t3.27-3.16q1.42-2.26 2.28-6.07.85-3.81.85-9.62Z"/></svg>